<?xml version="1.0" encoding="UTF-8"?>
<svg id="Layer_1" xmlns="http://www.w3.org/2000/svg" version="1.1" viewBox="0 0 165 92.8">
  <!-- Generator: Adobe Illustrator 29.1.0, SVG Export Plug-In . SVG Version: 2.1.0 Build 142)  -->
  <path d="M28.6,57.3l2-5c0,0,0-.2,0-.2l-11.8-4.5c-.7-.3-.7-1.3,0-1.6l11.8-4.5c0,0,.1-.1,0-.2l-2-5c0,0-.1-.1-.2,0l-11,4.4c-1.3.5-2.5-.9-1.7-2.1l5.7-8.6c0,0,0-.2,0-.2l-5.1-2c0,0-.1,0-.2,0l-3.7,5.5c-.2.3-.2.6,0,.9l5,12.5-5,12.5c-.1.3,0,.6,0,.9l3.7,5.5c0,0,.1,0,.2,0l5.1-2c0,0,.1-.1,0-.2l-5.7-8.6c-.8-1.1.4-2.6,1.7-2.1l11,4.4c0,0,.2,0,.2,0h0Z"/>
  <path d="M.5,49.7h9.9c0,0,.1,0,.1,0l1.1-2.7-1.1-2.7c0,0,0,0-.1,0H.5c0,0-.1,0-.1.1v5.3c0,0,0,.1.1.1h0Z"/>
  <path d="M54.5,30.4h-9.8v32.4h9.8c10.2,0,16.6-6.2,16.6-16.2s-6.4-16.2-16.6-16.2h0ZM54.5,58.4h-5.1v-23.6h5.1c7.4,0,11.6,4.2,11.6,11.8s-4.1,11.8-11.6,11.8h0Z"/>
  <path d="M91.9,43.6h-.7c-1.5-2.1-4.2-3.2-7.1-3.2-6.3,0-10.9,4.9-10.9,11.5s4.6,11.5,10.9,11.5,5.6-1.2,7.1-3.2h.7v2.7h4.4v-21.9h-4.4v2.7h0ZM84.9,59.2c-4.1,0-7.1-3.1-7.1-7.3s2.9-7.3,7.1-7.3,7,3,7,7.3-2.9,7.3-7,7.3Z"/>
  <path d="M157.7,51.9c0-7.2-4.6-11.5-10.9-11.5s-11.4,5-11.4,11.5,4.9,11.5,11.3,11.5,9.7-3.1,10.6-7.8h-4.6c-.9,2.2-3.3,3.6-5.8,3.6-3.7,0-6.3-2.4-6.8-6h17.7v-1.3h0ZM146.8,44.5c3.4,0,5.6,1.9,6.1,5.2h-12.8c.8-3.1,3.1-5.2,6.6-5.2Z"/>
  <path d="M112.1,40.4c-2.8,0-5.3,1.3-6.7,3.2h-.7v-2.7h-4.4v21.9h4.6v-10.8c0-4.7,2.2-7.4,6-7.4s4.8,1.8,4.8,5.7v12.6h4.6v-12.8c0-6.2-2.9-9.6-8.3-9.6h0Z"/>
  <path d="M128.7,33.6h-4.6v22.8c0,4.6,1.9,6.4,6.4,6.4h4.1v-4.2h-3.5c-1.7,0-2.5-.8-2.5-2.5v-11h5.9v-4.2h-5.9v-7.3h0Z"/>
  <path d="M157.6,40.1c0-1.9,1.4-3.3,3.3-3.3s3.3,1.4,3.3,3.3-1.4,3.3-3.3,3.3-3.3-1.4-3.3-3.3ZM163.5,40.1c0-1.5-1.1-2.6-2.6-2.6s-2.6,1.1-2.6,2.6,1.1,2.6,2.6,2.6,2.6-1.1,2.6-2.6ZM159.7,38.4h1.4c.7,0,1.1.4,1.1.9s-.2.6-.5.7h0c.3.3.4.5.4.8v.8h-.6v-.7c0-.4-.2-.6-.6-.6h-.6v1.3h-.6v-3.3h0ZM161.6,39.4c0-.3-.2-.5-.5-.5h-.8v.9h.8c.3,0,.5-.2.5-.5Z"/>
</svg>