<?xml version="1.0" encoding="UTF-8"?>
<svg id="Layer_1" xmlns="http://www.w3.org/2000/svg" version="1.1" viewBox="0 0 165 92.8">
  <!-- Generator: Adobe Illustrator 29.1.0, SVG Export Plug-In . SVG Version: 2.1.0 Build 142)  -->
  <path d="M40.2,54.9l1.6-3.9v-.2l-9.3-3.6c-.5-.3-.5-1,0-1.2l9.3-3.6v-.2l-1.6-3.9h-.2l-8.7,3.5c-1,.4-2-.7-1.3-1.7l4.5-6.8v-.2l-4-1.6h-.2l-2.9,4.4c-.2.3-.2.4,0,.7l3.9,9.8-3.9,9.8v.7l2.9,4.4h.2l4-1.6v-.2l-4.5-6.8c-.6-.9.4-2.1,1.3-1.7l8.7,3.5h.2v.4Z"/>
  <path d="M18,48.9h7.9l.9-2.1-.9-2.1h-7.9v4.2h0Z"/>
  <path d="M60.6,33.6h-7.8v25.5h7.8c8,0,13.1-4.9,13.1-12.8s-5.1-12.8-13.1-12.8h0ZM60.6,55.7h-4v-18.6h4c5.8,0,9.1,3.3,9.1,9.3s-3.2,9.3-9.1,9.3h0Z"/>
  <path d="M90.1,44.1h-.5c-1.2-1.7-3.3-2.5-5.6-2.5-5,0-8.6,3.8-8.6,9.1s3.7,9.1,8.6,9.1,4.4-1,5.6-2.5h.5v2.1h3.5v-17.3h-3.5v2.1h0v-.2ZM84.6,56.3c-3.2,0-5.6-2.4-5.6-5.8s2.3-5.8,5.6-5.8,5.5,2.4,5.5,5.8-2.3,5.8-5.5,5.8Z"/>
  <path d="M141.9,50.6c0-5.7-3.7-9.1-8.6-9.1s-9,3.9-9,9.1,3.8,9.1,8.9,9.1,7.7-2.4,8.4-6.2h-3.7c-.7,1.7-2.6,2.9-4.6,2.9-2.9,0-5-1.9-5.4-4.7h13.9v-1h0ZM133.4,44.8c2.7,0,4.4,1.5,4.8,4.1h-10.1c.6-2.4,2.4-4.1,5.2-4.1h0Z"/>
  <path d="M106,41.5c-2.2,0-4.2,1-5.3,2.5h-.5v-2.1h-3.5v17.3h3.7v-8.5c0-3.7,1.7-5.8,4.7-5.8s3.7,1.4,3.7,4.5v9.9h3.7v-10.1c0-4.9-2.3-7.6-6.5-7.6h0Z"/>
  <path d="M119.1,36.1h-3.7v17.9c0,3.7,1.5,5.1,5.1,5.1h3.2v-3.3h-2.8c-1.3,0-2-.6-2-2v-8.7h4.6v-3.3h-4.6v-5.8h0Z"/>
  <path d="M141.8,41.3c0-1.5,1.1-2.6,2.6-2.6s2.6,1.1,2.6,2.6-1.1,2.6-2.6,2.6-2.6-1.1-2.6-2.6ZM146.5,41.3c0-1.2-.9-2.1-2.1-2.1s-2.1.9-2.1,2.1.9,2.1,2.1,2.1,2.1-.9,2.1-2.1ZM143.5,40h1.1c.5,0,.9.4.9.7s-.2.4-.4.5h0c.3.3.4.4.4.6v.6h-.4v-.5c0-.4-.2-.4-.4-.4h-.4v1h-.4v-2.6h-.2ZM145,40.7c0-.3-.2-.4-.4-.4h-.6v.7h.6c.3,0,.4-.2.4-.4h0Z"/>
</svg>